# xmcd
#
# Track frame offsets:
# 150
# 17792
# 41930
# 58997
# 79787
# 114445
# 172520
# 200972
# 229417
# 242577
# 288250
#
# Disc length: 4121 seconds
#
#
# Revision: 0
# Processed by: cddbd v1.5.1PL0 Copyright (c) Steve Scherf et al.
# Submitted via: FreeRIP 2.92 
#
DISCID=9810170b
DTITLE=Hematovore - Out For Blood
DYEAR=1998
DGENRE=Instrumental
TTITLE0=Gnat Attack
TTITLE1=It's All My Fault
TTITLE2=No...Tell Me Now!
TTITLE3=A Girl's Favorite Color
TTITLE4=Autopsy Turvy
TTITLE5=Suite in Dm
TTITLE6=Flypaper
TTITLE7=2 Fragments
TTITLE8=AFOUA
TTITLE9=The Plan Is...
TTITLE10=Who's Afraid of Terry Allen?
EXTD=
EXTT0=
EXTT1=
EXTT2=
EXTT3=
EXTT4=
EXTT5=I. Allegro II. Scherzo III. Andante el dorado
EXTT6=
EXTT7=I. Stabbed in the Back II. Incarmined a. Noodle City b. Oven-baked Pi c. Hammered d. Cubist Hornpipe
EXTT8=
EXTT9=I. Plan A II. Yeah, and then what? III. Plan B
EXTT10=
PLAYORDER=
